<?xml version="1.0" encoding="UTF-8"?>
<svg width="1440px" height="1024px" viewBox="0 0 1440 1024" version="1.1" xmlns="http://www.w3.org/2000/svg" xmlns:xlink="http://www.w3.org/1999/xlink">
    <!-- Generator: Sketch 47.1 (45422) - http://www.bohemiancoding.com/sketch -->
    <title>Background</title>
    <desc>Created with Sketch.</desc>
    <defs>
        <linearGradient x1="96.9746492%" y1="3.02535077%" x2="1.00047832%" y2="98.9995217%" id="linearGradient-1">
            <stop stop-color="#5CD1FF" offset="0%"></stop>
            <stop stop-color="#3EB5FF" offset="100%"></stop>
        </linearGradient>
        <linearGradient x1="100%" y1="3.37291982%" x2="1.20442489%" y2="100%" id="linearGradient-2">
            <stop stop-color="#20B9F9" offset="0%"></stop>
            <stop stop-color="#0E9AF1" offset="100%"></stop>
        </linearGradient>
        <linearGradient x1="100%" y1="2.53792455%" x2="50%" y2="83.2449903%" id="linearGradient-3">
            <stop stop-color="#8276FF" offset="0%"></stop>
            <stop stop-color="#5C51FA" offset="100%"></stop>
        </linearGradient>
    </defs>
    <g id="Website" stroke="none" stroke-width="1" fill="none" fill-rule="evenodd">
        <g id="Desktop-HD">
            <g id="Background">
                <g>
                    <path d="M1439.92593,0 L1439.92593,1024 L0,1024 L0,931.071931 C146.905429,903.521446 144.539769,834.62504 226.845376,819.795755 C309.150984,804.96647 422.83371,829.887384 494.891664,819.795755 C602.001605,804.795138 684.688513,710.526763 762.978322,680.331014 C823.120822,657.134536 955.945167,705.384966 1071.82216,589.150296 C1123.09169,537.722514 1118.21164,346.780943 1165.3909,190.6173 C1181.33021,137.858055 1222.74878,74.3189549 1289.6466,-5.68434189e-14 L1439.92593,0 Z" id="Line-2" fill="url(#linearGradient-1)"></path>
                    <path d="M135,1024 C188.72921,975.799204 245.136005,932.955708 348.131119,917.0709 C413.139943,907.04467 478.448083,944.575791 577.446753,928.913677 C652.303767,917.0709 702.707907,813.60181 817.371377,758.640178 C912.628716,712.980484 1074.24079,733.114298 1129.3188,690.761695 C1179.14239,652.449509 1189.58559,536.7521 1242.10414,465.177904 C1294.62268,393.603708 1333.7541,390.534729 1386.87705,346.262647 C1422.29235,316.747926 1440,289.99371 1440,266 L1440,1024 L135,1024 Z" id="Line-3" fill="url(#linearGradient-2)"></path>
                    <path d="M805,1024 C842.25822,964.825097 883.819465,917.330523 929.683733,881.516276 C990.383561,834.117318 1144.15094,845.811231 1212.85036,797.110497 C1233.70381,782.327568 1257.32497,735.717456 1302.77541,683.723673 C1348.22586,631.72989 1385.7364,626.305179 1412.76835,591.297635 C1430.98514,567.706115 1440.06224,536.940237 1439.99968,499 L1439.99968,1024 L805,1024 Z" id="Line-4" fill="url(#linearGradient-3)"></path>
                </g>
            </g>
        </g>
    </g>
</svg>